<mxfile host="app.diagrams.net" modified="2023-07-25T11:19:07.694Z" agent="Mozilla/5.0 (Windows NT 10.0; Win64; x64) AppleWebKit/537.36 (KHTML, like Gecko) Chrome/114.0.0.0 Safari/537.36" version="21.6.5" etag="0Ow57dbrIGpr1cktVaGw" type="github">
  <diagram name="Page-1" id="SZsemQm84BaeB1Bs5ECV">
    <mxGraphModel>
      <root>
        <mxCell id="0" />
        <mxCell id="1" parent="0" />
      </root>
    </mxGraphModel>
  </diagram>
</mxfile>
